<?xml version="1.0" encoding="UTF-8" standalone="no"?>
<svg
   viewBox="0 0 297.64 419.53"
   version="1.1"
   id="svg50"
   sodipodi:docname="credenciales-A6.svg"
   xml:space="preserve"
   inkscape:version="1.3 (0e150ed6c4, 2023-07-21)"
   xmlns:inkscape="http://www.inkscape.org/namespaces/inkscape"
   xmlns:sodipodi="http://sodipodi.sourceforge.net/DTD/sodipodi-0.dtd"
   xmlns:xlink="http://www.w3.org/1999/xlink"
   xmlns="http://www.w3.org/2000/svg"
   xmlns:svg="http://www.w3.org/2000/svg"><sodipodi:namedview
     id="namedview50"
     pagecolor="#ffffff"
     bordercolor="#666666"
     borderopacity="1.0"
     inkscape:showpageshadow="2"
     inkscape:pageopacity="0.0"
     inkscape:pagecheckerboard="0"
     inkscape:deskcolor="#d1d1d1"
     showguides="true"
     inkscape:zoom="1.5152409"
     inkscape:cx="94.374432"
     inkscape:cy="222.0769"
     inkscape:window-width="1920"
     inkscape:window-height="1168"
     inkscape:window-x="720"
     inkscape:window-y="0"
     inkscape:window-maximized="1"
     inkscape:current-layer="svg50"><sodipodi:guide
       position="43.361202,428.10167"
       orientation="0,-1"
       id="guide50"
       inkscape:locked="false" /><sodipodi:guide
       position="-8.3999328,397.83017"
       orientation="1,0"
       id="guide51"
       inkscape:locked="false" /><sodipodi:guide
       position="710.11809,-6.8048609"
       orientation="0,-1"
       id="guide52"
       inkscape:locked="false" /><sodipodi:guide
       position="66.326086,155.54557"
       orientation="1,0"
       id="guide53"
       inkscape:locked="false" /></sodipodi:namedview><defs
     id="defs3"><style
       id="style1">.cls-1{font-family:RalewayRoman-Regular, Raleway;font-size:11px;font-variation-settings:'wght' 400;}.cls-1,.cls-2,.cls-3{fill:#33276f;}
.cls-4 { 
  letter-spacing:.1em;
  }
.warning {
  fill: #CE0E08;
}
.no-warning {
  fill: #E3E3E3;
}
.cls-5{clip-path:url(#clippath);}.cls-6{fill:none;}.cls-6,.cls-3,.cls-7{stroke-width:0px;}.cls-8{letter-spacing:-.03em;}.cls-9{letter-spacing:0em;}.cls-10{clip-path:url(#clippath-1);}.cls-11{clip-path:url(#clippath-2);}.cls-12{letter-spacing:-.02em;}.cls-13{letter-spacing:-.03em;}.cls-2{font-size:21px;}.cls-2,.cls-14{font-family:RalewayRoman-Bold, Raleway;font-variation-settings:'wght' 700;font-weight:700;}.cls-14{font-size:15px;}.cls-14,.cls-7{fill:#fff;}.cls-15{letter-spacing:0em;}.cls-16{letter-spacing:0em;}.cls-17{letter-spacing:0em;}.cls-18{letter-spacing:0em;}.cls-19{letter-spacing:0em;}.cls-20{letter-spacing:0em;}.cls-21{letter-spacing:-.02em;}.cls-22{letter-spacing:0em;}</style><clipPath
       id="clippath"><rect
         class="cls-6"
         x="-8.5"
         y="-8.5"
         width="314.65"
         height="436.54"
         id="rect1" /></clipPath><clipPath
       id="clippath-1"><rect
         class="cls-6"
         x="-8.5"
         y="-68.78"
         width="314.65"
         height="496.81"
         id="rect2" /></clipPath><clipPath
       id="clippath-2"><rect
         class="cls-6"
         x="-8.5"
         y="-68.78"
         width="314.65"
         height="496.81"
         id="rect3" /></clipPath></defs><image
     width="316.6745"
     height="447.97855"
     preserveAspectRatio="none"
     style="stroke-width:2.5894;image-rendering:optimizeSpeed"
     xlink:href="ejemplo-fondo-plantilla.png"
     id="image1"
     x="-6.2770996"
     y="-22.057213" /><rect
     class="cls-7"
     x="55.5"
     y="22.93"
     width="250.64999"
     height="315.79001"
     id="rect5" /><path
     class="cls-3"
     d="m 42.74,368.12 c 0.95,0 1.68,0.28 2.19,0.83 0.52,0.56 0.77,1.29 0.77,2.2 0,0.91 -0.26,1.64 -0.78,2.21 -0.52,0.57 -1.25,0.85 -2.19,0.85 H 40.5 v 3.28 h -1.06 v -9.37 h 3.29 z m 0.05,5.08 c 0.59,0 1.05,-0.19 1.39,-0.56 0.34,-0.37 0.5,-0.87 0.5,-1.48 0,-0.61 -0.17,-1.11 -0.5,-1.48 -0.33,-0.37 -0.8,-0.55 -1.4,-0.55 H 40.5 v 4.07 h 2.28 z"
     id="path5" /><path
     class="cls-3"
     d="m 52.28,371.16 c -0.35,0.97 -0.93,2.54 -1.73,4.7 -0.81,2.16 -1.38,3.73 -1.73,4.7 h -1.07 l 1.25,-3.44 -2.4,-5.95 h 1.23 c 0.17,0.47 0.69,1.84 1.54,4.11 0.02,0.06 0.07,0.09 0.13,0.08 0.06,0 0.11,-0.04 0.13,-0.09 l 1.47,-4.1 h 1.18 z"
     id="path6" /><path
     class="cls-3"
     d="m 57.43,376.62 c 0.71,0 1.33,-0.18 1.84,-0.53 0.52,-0.35 0.91,-0.84 1.18,-1.45 h 1.17 c -0.33,0.91 -0.86,1.63 -1.59,2.19 -0.73,0.56 -1.6,0.83 -2.62,0.83 -1.32,0 -2.39,-0.45 -3.21,-1.36 -0.82,-0.91 -1.23,-2.07 -1.23,-3.48 0,-1.41 0.41,-2.59 1.23,-3.5 0.82,-0.91 1.89,-1.37 3.2,-1.37 1,0 1.86,0.27 2.6,0.82 0.74,0.54 1.27,1.28 1.61,2.2 h -1.17 c -0.28,-0.61 -0.68,-1.09 -1.2,-1.44 -0.52,-0.35 -1.14,-0.53 -1.85,-0.53 -1.02,0 -1.83,0.35 -2.44,1.07 -0.61,0.72 -0.9,1.63 -0.9,2.76 0,1.13 0.3,2.04 0.91,2.75 0.61,0.71 1.42,1.07 2.45,1.07 z"
     id="path7" /><path
     class="cls-3"
     d="m 63.29,371.79 c 0.63,-0.64 1.42,-0.97 2.38,-0.97 0.96,0 1.75,0.32 2.38,0.97 0.63,0.64 0.95,1.46 0.95,2.44 0,0.98 -0.32,1.79 -0.95,2.44 -0.63,0.65 -1.42,0.97 -2.38,0.97 -0.96,0 -1.75,-0.32 -2.38,-0.97 -0.63,-0.64 -0.95,-1.46 -0.95,-2.45 0,-0.99 0.32,-1.79 0.95,-2.44 z m 2.38,4.89 c 0.68,0 1.23,-0.23 1.65,-0.68 0.42,-0.45 0.63,-1.04 0.63,-1.78 0,-0.74 -0.21,-1.3 -0.63,-1.75 -0.42,-0.45 -0.97,-0.68 -1.65,-0.68 -0.68,0 -1.22,0.23 -1.64,0.68 -0.42,0.45 -0.64,1.04 -0.64,1.76 0,0.72 0.21,1.31 0.64,1.76 0.42,0.45 0.97,0.68 1.64,0.68 z"
     id="path8" /><path
     class="cls-3"
     d="m 73.29,370.83 c 0.81,0 1.45,0.26 1.9,0.77 0.45,0.51 0.68,1.25 0.68,2.21 v 3.68 h -1.06 v -3.51 c 0,-0.25 -0.03,-0.49 -0.08,-0.72 -0.05,-0.23 -0.14,-0.46 -0.27,-0.69 -0.12,-0.23 -0.32,-0.42 -0.57,-0.56 -0.26,-0.14 -0.56,-0.21 -0.92,-0.21 -0.36,0 -0.69,0.08 -0.97,0.23 -0.28,0.15 -0.48,0.34 -0.62,0.57 -0.13,0.23 -0.23,0.44 -0.29,0.65 -0.06,0.2 -0.09,0.39 -0.09,0.55 v 3.69 H 69.94 V 371 H 71 v 1.2 c 0.17,-0.37 0.43,-0.69 0.8,-0.96 0.37,-0.27 0.86,-0.4 1.48,-0.4 z"
     id="path9" /><path
     class="cls-3"
     d="m 78.52,369.16 v 3.06 h 4.02 v 1.01 h -4.02 v 3.28 h 4.66 v 1.01 H 77.5 v -9.38 h 5.68 v 1.02 z"
     id="path10" /><path
     class="cls-3"
     d="m 44.73,400.54 c 0,0.42 -0.09,0.81 -0.27,1.2 -0.18,0.38 -0.42,0.74 -0.72,1.07 -0.3,0.33 -0.61,0.64 -0.93,0.95 -0.32,0.31 -0.65,0.65 -1,1.03 -0.35,0.38 -0.62,0.76 -0.83,1.13 h 3.58 v 0.98 h -5.18 c 0.14,-0.63 0.55,-1.37 1.23,-2.21 0.32,-0.4 0.76,-0.88 1.31,-1.46 0.55,-0.57 0.89,-0.94 1.02,-1.11 0.47,-0.6 0.71,-1.14 0.7,-1.63 0,-0.41 -0.14,-0.75 -0.42,-1.02 -0.28,-0.27 -0.65,-0.41 -1.11,-0.41 -0.46,0 -0.87,0.15 -1.15,0.45 -0.29,0.3 -0.45,0.72 -0.48,1.26 h -1.01 c 0,-0.72 0.23,-1.36 0.69,-1.9 0.46,-0.54 1.11,-0.82 1.96,-0.82 0.78,0 1.41,0.24 1.89,0.72 0.48,0.48 0.72,1.07 0.72,1.76 z"
     id="path11" /><path
     class="cls-3"
     d="m 49.61,398.04 c 1.07,0 1.94,0.42 2.6,1.26 0.66,0.84 0.99,1.92 0.99,3.22 0,1.3 -0.33,2.39 -0.99,3.23 -0.66,0.84 -1.53,1.26 -2.6,1.26 -1.07,0 -1.92,-0.42 -2.59,-1.26 -0.66,-0.84 -0.99,-1.92 -0.99,-3.23 0,-1.31 0.33,-2.38 0.99,-3.22 0.66,-0.84 1.52,-1.26 2.59,-1.26 z m -1.88,7.02 c 0.46,0.65 1.08,0.98 1.88,0.98 0.8,0 1.43,-0.33 1.89,-0.98 0.47,-0.65 0.7,-1.5 0.7,-2.54 0,-1.04 -0.23,-1.88 -0.7,-2.53 -0.46,-0.65 -1.1,-0.97 -1.89,-0.97 -0.79,0 -1.42,0.32 -1.88,0.97 -0.46,0.65 -0.69,1.49 -0.69,2.53 0,1.04 0.23,1.88 0.69,2.54 z"
     id="path12" /><path
     class="cls-3"
     d="m 59.33,400.54 c 0,0.42 -0.09,0.81 -0.27,1.2 -0.18,0.38 -0.42,0.74 -0.72,1.07 -0.3,0.33 -0.61,0.64 -0.93,0.95 -0.32,0.31 -0.65,0.65 -1,1.03 -0.35,0.38 -0.62,0.76 -0.83,1.13 h 3.58 v 0.98 h -5.18 c 0.14,-0.63 0.55,-1.37 1.23,-2.21 0.32,-0.4 0.76,-0.88 1.31,-1.46 0.55,-0.57 0.89,-0.94 1.02,-1.11 0.47,-0.6 0.71,-1.14 0.7,-1.63 0,-0.41 -0.14,-0.75 -0.42,-1.02 -0.28,-0.27 -0.65,-0.41 -1.11,-0.41 -0.46,0 -0.87,0.15 -1.15,0.45 -0.29,0.3 -0.45,0.72 -0.48,1.26 h -1.01 c 0,-0.72 0.23,-1.36 0.69,-1.9 0.46,-0.54 1.11,-0.82 1.96,-0.82 0.78,0 1.41,0.24 1.89,0.72 0.48,0.48 0.72,1.07 0.72,1.76 z"
     id="path13" /><path
     class="cls-3"
     d="m 63.96,401.6 c 0.76,0.08 1.39,0.35 1.88,0.8 0.49,0.45 0.74,1.03 0.74,1.74 0,0.33 -0.05,0.66 -0.16,0.98 -0.11,0.32 -0.27,0.63 -0.49,0.92 -0.22,0.29 -0.53,0.53 -0.93,0.7 -0.4,0.18 -0.86,0.27 -1.38,0.27 -0.48,0 -0.91,-0.07 -1.29,-0.22 -0.38,-0.15 -0.68,-0.35 -0.92,-0.59 -0.23,-0.24 -0.42,-0.49 -0.55,-0.74 -0.13,-0.25 -0.23,-0.51 -0.3,-0.79 l 1.02,-0.25 c 0.09,0.42 0.3,0.8 0.62,1.12 0.32,0.32 0.78,0.49 1.38,0.49 0.6,0 1.11,-0.18 1.46,-0.54 0.35,-0.36 0.53,-0.8 0.53,-1.3 0,-0.5 -0.18,-0.88 -0.53,-1.18 -0.35,-0.3 -0.81,-0.46 -1.38,-0.49 -0.15,0 -0.31,0 -0.48,0.02 -0.17,0.02 -0.31,0.05 -0.42,0.07 -0.11,0.02 -0.18,0.03 -0.19,0.03 l -0.24,-0.79 c 0.12,-0.12 0.27,-0.27 0.47,-0.45 0.2,-0.18 0.5,-0.47 0.92,-0.87 0.42,-0.39 0.76,-0.72 1.02,-0.98 0.27,-0.26 0.39,-0.4 0.37,-0.41 h -4.05 v -0.97 h 5.36 v 0.96 l -2.47,2.45 z"
     id="path14" /><path
     class="cls-3"
     d="m 43.18,391.32 c 0.71,0 1.33,-0.18 1.84,-0.53 0.51,-0.35 0.91,-0.84 1.18,-1.45 h 1.17 c -0.33,0.91 -0.86,1.63 -1.59,2.19 -0.73,0.56 -1.6,0.83 -2.62,0.83 -1.32,0 -2.39,-0.45 -3.21,-1.36 -0.82,-0.91 -1.23,-2.07 -1.23,-3.48 0,-1.41 0.41,-2.59 1.23,-3.5 0.82,-0.91 1.89,-1.37 3.2,-1.37 1,0 1.86,0.27 2.6,0.82 0.73,0.54 1.27,1.28 1.61,2.2 h -1.17 c -0.28,-0.61 -0.68,-1.09 -1.2,-1.44 -0.52,-0.35 -1.14,-0.53 -1.85,-0.53 -1.02,0 -1.83,0.35 -2.44,1.07 -0.6,0.71 -0.9,1.63 -0.9,2.76 0,1.13 0.3,2.04 0.91,2.75 0.61,0.71 1.42,1.07 2.45,1.07 z"
     id="path15" /><path
     class="cls-3"
     d="m 53.57,390.36 c 0,0.65 0.25,0.97 0.75,0.97 v 0.86 c 0,0 -0.05,0 -0.12,0 -0.07,0 -0.18,0 -0.31,-0.03 -0.13,-0.03 -0.27,-0.07 -0.4,-0.11 -0.13,-0.05 -0.26,-0.13 -0.39,-0.25 -0.13,-0.12 -0.23,-0.27 -0.29,-0.44 -0.19,0.28 -0.51,0.52 -0.97,0.71 -0.45,0.19 -0.89,0.29 -1.31,0.29 -0.81,0 -1.43,-0.18 -1.86,-0.54 -0.43,-0.36 -0.64,-0.83 -0.64,-1.41 0,-0.51 0.2,-0.94 0.59,-1.29 0.39,-0.35 1.06,-0.6 2.02,-0.75 0.17,-0.03 0.41,-0.06 0.72,-0.08 0.32,-0.02 0.59,-0.04 0.81,-0.04 h 0.35 v -0.41 c 0,-0.35 -0.12,-0.66 -0.34,-0.92 -0.22,-0.27 -0.6,-0.4 -1.15,-0.4 -0.83,0 -1.35,0.34 -1.57,1.01 l -1.05,-0.27 c 0.42,-1.13 1.29,-1.69 2.62,-1.69 0.88,0 1.53,0.23 1.94,0.68 0.42,0.46 0.62,1.01 0.62,1.67 v 2.47 z m -1.06,-1.3 -1.53,0.1 c -0.4,0.03 -0.73,0.1 -1,0.2 -0.57,0.19 -0.86,0.52 -0.86,0.98 0,0.4 0.17,0.68 0.52,0.85 0.35,0.17 0.72,0.23 1.13,0.19 0.49,-0.03 0.9,-0.2 1.25,-0.5 0.33,-0.3 0.5,-0.54 0.5,-0.71 v -1.12 z"
     id="path16" /><path
     class="cls-3"
     d="m 58.78,385.54 c 0.81,0 1.45,0.26 1.9,0.77 0.45,0.51 0.68,1.25 0.68,2.21 v 3.68 H 60.3 v -3.51 c 0,-0.25 -0.03,-0.49 -0.08,-0.72 -0.05,-0.23 -0.14,-0.46 -0.27,-0.69 -0.12,-0.23 -0.32,-0.42 -0.57,-0.56 -0.26,-0.14 -0.56,-0.21 -0.92,-0.21 -0.36,0 -0.69,0.08 -0.97,0.23 -0.28,0.15 -0.48,0.34 -0.62,0.57 -0.13,0.23 -0.23,0.44 -0.29,0.65 -0.06,0.2 -0.09,0.39 -0.09,0.55 v 3.69 h -1.06 v -6.49 h 1.06 v 1.2 c 0.17,-0.37 0.43,-0.69 0.8,-0.96 0.37,-0.27 0.86,-0.4 1.48,-0.4 z"
     id="path17" /><path
     class="cls-3"
     d="m 67.98,390.36 c 0,0.65 0.25,0.97 0.75,0.97 v 0.86 c 0,0 -0.05,0 -0.12,0 -0.07,0 -0.18,0 -0.31,-0.03 -0.13,-0.03 -0.27,-0.07 -0.4,-0.11 -0.13,-0.05 -0.26,-0.13 -0.39,-0.25 -0.13,-0.12 -0.23,-0.27 -0.29,-0.44 -0.19,0.28 -0.51,0.52 -0.97,0.71 -0.45,0.19 -0.89,0.29 -1.31,0.29 -0.81,0 -1.44,-0.18 -1.86,-0.54 -0.42,-0.36 -0.64,-0.83 -0.64,-1.41 0,-0.51 0.2,-0.94 0.59,-1.29 0.39,-0.35 1.06,-0.6 2.02,-0.75 0.17,-0.03 0.41,-0.06 0.72,-0.08 0.32,-0.02 0.59,-0.04 0.81,-0.04 h 0.35 v -0.41 c 0,-0.35 -0.12,-0.66 -0.34,-0.92 -0.22,-0.27 -0.6,-0.4 -1.15,-0.4 -0.83,0 -1.35,0.34 -1.57,1.01 l -1.05,-0.27 c 0.42,-1.13 1.29,-1.69 2.62,-1.69 0.88,0 1.53,0.23 1.94,0.68 0.42,0.46 0.62,1.01 0.62,1.67 v 2.47 z m -1.06,-1.3 -1.53,0.1 c -0.4,0.03 -0.73,0.1 -1,0.2 -0.57,0.19 -0.86,0.52 -0.86,0.98 0,0.4 0.17,0.68 0.52,0.85 0.34,0.17 0.72,0.23 1.13,0.19 0.49,-0.03 0.91,-0.2 1.25,-0.5 0.33,-0.3 0.5,-0.54 0.5,-0.71 v -1.12 z"
     id="path18" /><path
     class="cls-3"
     d="m 73.19,385.52 c 0.1,0 0.24,0 0.42,0.02 v 1.08 c -0.26,-0.06 -0.49,-0.09 -0.71,-0.09 -0.39,0 -0.72,0.08 -0.98,0.24 -0.27,0.16 -0.46,0.36 -0.57,0.62 -0.11,0.26 -0.2,0.48 -0.24,0.68 -0.05,0.2 -0.07,0.39 -0.07,0.59 v 3.53 h -1.06 v -6.5 h 1.05 v 1.2 c 0.12,-0.38 0.37,-0.7 0.75,-0.97 0.37,-0.26 0.85,-0.39 1.42,-0.39 z"
     id="path19" /><path
     class="cls-3"
     d="m 75.66,382.99 c 0.14,0.14 0.21,0.31 0.21,0.51 0,0.2 -0.07,0.37 -0.21,0.51 -0.14,0.14 -0.31,0.21 -0.52,0.21 -0.21,0 -0.37,-0.07 -0.51,-0.21 -0.14,-0.14 -0.21,-0.31 -0.21,-0.51 0,-0.2 0.07,-0.37 0.21,-0.51 0.14,-0.14 0.31,-0.21 0.51,-0.21 0.2,0 0.38,0.07 0.52,0.21 z m 0,9.19 h -1.05 v -6.5 h 1.05 z"
     id="path20" /><path
     class="cls-3"
     d="m 82.49,390.36 c 0,0.65 0.25,0.97 0.75,0.97 v 0.86 c 0,0 -0.05,0 -0.12,0 -0.07,0 -0.18,0 -0.31,-0.03 -0.13,-0.03 -0.27,-0.07 -0.4,-0.11 -0.13,-0.05 -0.26,-0.13 -0.39,-0.25 -0.13,-0.12 -0.23,-0.27 -0.29,-0.44 -0.19,0.28 -0.51,0.52 -0.97,0.71 -0.45,0.19 -0.89,0.29 -1.31,0.29 -0.81,0 -1.44,-0.18 -1.86,-0.54 -0.42,-0.36 -0.64,-0.83 -0.64,-1.41 0,-0.51 0.2,-0.94 0.59,-1.29 0.39,-0.35 1.06,-0.6 2.02,-0.75 0.17,-0.03 0.41,-0.06 0.72,-0.08 0.32,-0.02 0.59,-0.04 0.81,-0.04 h 0.35 v -0.41 c 0,-0.35 -0.12,-0.66 -0.34,-0.92 -0.22,-0.27 -0.6,-0.4 -1.15,-0.4 -0.83,0 -1.35,0.34 -1.57,1.01 l -1.05,-0.27 c 0.42,-1.13 1.29,-1.69 2.62,-1.69 0.88,0 1.53,0.23 1.94,0.68 0.42,0.46 0.62,1.01 0.62,1.67 v 2.47 z m -1.06,-1.3 -1.53,0.1 c -0.4,0.03 -0.73,0.1 -1,0.2 -0.57,0.19 -0.86,0.52 -0.86,0.98 0,0.4 0.17,0.68 0.52,0.85 0.34,0.17 0.72,0.23 1.13,0.19 0.49,-0.03 0.91,-0.2 1.25,-0.5 0.33,-0.3 0.5,-0.54 0.5,-0.71 v -1.12 z"
     id="path21" /><path
     class="cls-3"
     d="m 87.94,387.57 c -0.16,-0.76 -0.66,-1.13 -1.52,-1.13 -0.51,0 -0.86,0.11 -1.07,0.34 -0.21,0.22 -0.31,0.45 -0.31,0.68 0,0.26 0.13,0.45 0.38,0.59 0.25,0.14 0.65,0.26 1.18,0.38 0.31,0.07 0.54,0.12 0.7,0.16 0.16,0.04 0.37,0.11 0.62,0.22 0.26,0.1 0.45,0.22 0.58,0.34 0.13,0.12 0.24,0.29 0.35,0.5 0.1,0.21 0.16,0.45 0.16,0.73 0,0.61 -0.22,1.1 -0.67,1.45 -0.44,0.35 -1.04,0.52 -1.77,0.52 -0.81,0 -1.44,-0.2 -1.89,-0.6 -0.45,-0.4 -0.71,-0.89 -0.77,-1.45 h 1.05 c 0.05,0.29 0.2,0.55 0.45,0.79 0.25,0.24 0.63,0.35 1.13,0.35 0.42,0 0.76,-0.09 1.03,-0.27 0.27,-0.18 0.41,-0.44 0.41,-0.79 0,-0.3 -0.12,-0.52 -0.35,-0.65 -0.23,-0.13 -0.63,-0.28 -1.2,-0.42 -0.9,-0.22 -1.53,-0.44 -1.91,-0.68 -0.37,-0.24 -0.56,-0.62 -0.56,-1.15 0,-0.22 0.04,-0.43 0.11,-0.64 0.07,-0.21 0.2,-0.42 0.37,-0.62 0.17,-0.2 0.43,-0.37 0.75,-0.5 0.33,-0.13 0.72,-0.19 1.16,-0.19 0.82,0 1.45,0.2 1.88,0.6 0.43,0.4 0.67,0.89 0.73,1.45 h -1.03 z"
     id="path22" /><polygon
     class="cls-3"
     points="10.76,382 10.76,377.55 26.8,387.21 10.76,396.86 10.76,392.47 19.77,387.21 "
     id="polygon22" /><polygon
     class="cls-3"
     points="26.3,367.78 30.09,365.89 30.09,385.5 12.8,374.5 16.59,372.61 26.29,378.53 "
     id="polygon23" /><polygon
     class="cls-3"
     points="26.3,406.74 30.09,408.63 30.09,389.02 12.8,400.02 16.59,401.91 26.29,395.73 "
     id="polygon24" /><polygon
     class="cls-3"
     points="10.76,382 10.76,377.55 26.8,387.21 10.76,396.86 10.76,392.47 19.77,387.21 "
     id="polygon25" /><polygon
     class="cls-3"
     points="26.3,367.78 30.09,365.89 30.09,385.5 12.8,374.5 16.59,372.61 26.29,378.53 "
     id="polygon26" /><polygon
     class="cls-3"
     points="26.3,406.74 30.09,408.63 30.09,389.02 12.8,400.02 16.59,401.91 26.29,395.73 "
     id="polygon27" /><path
     class="cls-3"
     d="m 87.75,372.21 c 1.25,0.29 2.15,0.62 2.71,1 0.56,0.37 0.84,0.94 0.84,1.69 0,0.86 -0.31,1.53 -0.93,2.02 -0.62,0.49 -1.45,0.73 -2.49,0.73 -1.04,0 -1.96,-0.27 -2.62,-0.8 -0.66,-0.53 -1.03,-1.22 -1.13,-2.08 h 1.05 c 0.1,0.5 0.37,0.94 0.8,1.31 0.43,0.38 1.06,0.57 1.89,0.57 0.78,0 1.37,-0.17 1.77,-0.5 0.4,-0.34 0.6,-0.73 0.6,-1.19 0,-0.22 -0.06,-0.41 -0.17,-0.59 -0.11,-0.18 -0.24,-0.32 -0.38,-0.43 -0.14,-0.11 -0.34,-0.21 -0.61,-0.32 -0.27,-0.1 -0.49,-0.18 -0.67,-0.23 -0.18,-0.05 -0.43,-0.11 -0.74,-0.19 -1.27,-0.31 -2.17,-0.64 -2.69,-1 -0.52,-0.36 -0.78,-0.89 -0.77,-1.6 0.02,-0.77 0.32,-1.41 0.9,-1.91 0.58,-0.5 1.4,-0.75 2.47,-0.75 1.07,0 1.9,0.26 2.54,0.77 0.64,0.51 1.02,1.21 1.15,2.11 h -1.03 c -0.12,-0.54 -0.4,-0.99 -0.82,-1.35 -0.42,-0.36 -1.04,-0.54 -1.85,-0.54 -0.81,0 -1.37,0.17 -1.74,0.5 -0.37,0.33 -0.56,0.72 -0.56,1.17 0,0.45 0.19,0.77 0.58,0.98 0.39,0.22 1.02,0.43 1.91,0.64 z"
     id="path27" /><text
     class="cls-2"
     id="txt_nombre"
     x="66.440002"
     y="211.8"
     style="font-size:24px"><tspan
       class="cls-19"
       x="66.440002"
       y="211.8"
       id="tspan27"
       style="font-style:normal;font-variant:normal;font-weight:bold;font-stretch:normal;font-size:24px;font-family:Brasley;-inkscape-font-specification:'Brasley Bold'">{{ nombre }}</tspan></text><text
     class="cls-2"
     transform="rotate(90)"
     id="text_placeholder"
     x="31.77"
     y="-269.03"><tspan
       class="cls-20"
       x="31.77"
       y="-269.03"
       id="tspan38"
       style="font-style:normal;font-variant:normal;font-weight:500;font-stretch:normal;font-family:Brasley;-inkscape-font-specification:'Brasley Medium'">{{ placeholder }}</tspan></text><text
     class="cls-1"
     id="text_pronombre"
     x="66.389999"
     y="184.81"
     style="font-size:14.6667px"><tspan
       x="66.389999"
       y="184.81"
       id="tspan40"
       style="font-style:normal;font-variant:normal;font-weight:normal;font-stretch:normal;font-size:14.6667px;font-family:Brasley;-inkscape-font-specification:Brasley">{{ pronombre }}</tspan></text><text
     class="cls-1"
     id="text47"
     x="65.389999"
     y="328.82001"
     style="font-size:14.6667px"><tspan
       class="cls-15"
       x="65.389999"
       y="328.82001"
       id="tspan42"
       style="font-style:normal;font-variant:normal;font-weight:normal;font-stretch:normal;font-size:14.6667px;font-family:Brasley;-inkscape-font-specification:Brasley">{{ empresa }}</tspan></text><circle
     class="cls-3"
     cx="269"
     cy="300"
     r="17.709999"
     id="circle47" />

<text
   class="{% if warning %}warning{% else %}no-warning{% endif %}"
   id="txt_camisa_menu"
   text-anchor="middle"
   x="269"
   y="305.8"
   style="font-style:normal;font-variant:normal;font-weight:bold;font-stretch:normal;font-size:12pt;font-family:Brasley;text-align:center;text-anchor:middle;stroke-width:0.264583">{{camisa}}-{{menu}}</text>

<text
     class="cls-2"
     id="text_primer_apellido"
     x="66.440002"
     y="240.1897"
     style="font-size:24px"><tspan
       class="cls-19"
       x="66.440002"
       y="240.1897"
       id="tspan53"
       style="font-style:normal;font-variant:normal;font-weight:bold;font-stretch:normal;font-size:24px;font-family:Brasley;-inkscape-font-specification:'Brasley Bold'">{{ primer_apellido }}</tspan></text><text
     class="cls-2"
     id="text_segundo_apellido"
     x="66.440002"
     y="268.9588"
     style="font-size:24px"><tspan
       class="cls-19"
       x="66.440002"
       y="268.9588"
       id="tspan54"
       style="font-style:normal;font-variant:normal;font-weight:bold;font-stretch:normal;font-size:24px;font-family:Brasley;-inkscape-font-specification:'Brasley Bold'">{{ segundo_apellido }}</tspan></text></svg>
